<svg width="45" height="41" viewBox="0 0 45 41" fill="none" xmlns="http://www.w3.org/2000/svg">
<g id="flat-color-icons:google">
<path id="Vector" d="M40.8853 17.1542H39.375V17.0834H22.5V23.9167H33.0966C31.5506 27.8945 27.3966 30.75 22.5 30.75C16.2872 30.75 11.25 26.1606 11.25 20.5C11.25 14.8395 16.2872 10.25 22.5 10.25C25.3678 10.25 27.9769 11.2357 29.9634 12.8458L35.2669 8.01381C31.9181 5.17029 27.4387 3.41669 22.5 3.41669C12.1453 3.41669 3.75 11.0657 3.75 20.5C3.75 29.9343 12.1453 37.5834 22.5 37.5834C32.8547 37.5834 41.25 29.9343 41.25 20.5C41.25 19.3546 41.1206 18.2365 40.8853 17.1542Z" fill="#FFC107"/>
<path id="Vector_2" d="M5.91211 12.5486L12.0724 16.6648C13.7393 12.9048 17.7762 10.25 22.5002 10.25C25.368 10.25 27.9771 11.2357 29.9637 12.8458L35.2671 8.01381C31.9184 5.17029 27.439 3.41669 22.5002 3.41669C15.2984 3.41669 9.05273 7.12121 5.91211 12.5486Z" fill="#FF3D00"/>
<path id="Vector_3" d="M22.4998 37.5833C27.3429 37.5833 31.7436 35.8946 35.0707 33.1485L29.2676 28.6744C27.3219 30.0226 24.9443 30.7517 22.4998 30.75C17.6229 30.75 13.482 27.9167 11.922 23.9628L5.80762 28.255C8.91074 33.7874 15.2126 37.5833 22.4998 37.5833Z" fill="#4CAF50"/>
<path id="Vector_4" d="M40.8853 17.1542H39.375V17.0833H22.5V23.9166H33.0966C32.3571 25.8098 31.025 27.4642 29.265 28.6752L29.2678 28.6735L35.0709 33.1476C34.6603 33.4876 41.25 29.0416 41.25 20.5C41.25 19.3545 41.1206 18.2364 40.8853 17.1542Z" fill="#1976D2"/>
</g>
</svg>
